<svg width="20" height="20" viewBox="0 0 20 20" fill="none" xmlns="http://www.w3.org/2000/svg">
<path d="M1.59705 4.08594C1.38732 4.08594 1.17965 4.12725 0.985885 4.20751C0.792122 4.28776 0.616065 4.4054 0.467765 4.5537C0.319465 4.702 0.201827 4.87806 0.121568 5.07182C0.041309 5.26559 0 5.47326 0 5.68299C0 5.89271 0.041309 6.10039 0.121568 6.29415C0.201827 6.48791 0.319465 6.66397 0.467765 6.81227C0.616065 6.96057 0.792122 7.07821 0.985885 7.15847C1.17965 7.23873 1.38732 7.28004 1.59705 7.28004C2.02061 7.28004 2.42683 7.11178 2.72633 6.81227C3.02584 6.51277 3.1941 6.10655 3.1941 5.68299C3.1941 5.25942 3.02584 4.85321 2.72633 4.5537C2.42683 4.2542 2.02061 4.08594 1.59705 4.08594Z" fill="#00B4D8"/>
<path d="M1.59749 2.48519C1.42146 2.48519 1.24703 2.50119 1.07741 2.5268C1.37286 1.78122 1.88557 1.14165 2.54901 0.691079C3.21246 0.240507 3.99601 -0.000266515 4.79799 2.21384e-07H15.9997C17.0608 2.21384e-07 18.0783 0.421493 18.8286 1.17176C19.5789 1.92202 20.0004 2.93959 20.0004 4.00063V15.2024C20.0004 16.2634 19.5789 17.281 18.8286 18.0312C18.0783 18.7815 17.0608 19.203 15.9997 19.203H4.79799C3.73696 19.203 2.71938 18.7815 1.96912 18.0312C1.21886 17.281 0.797363 16.2634 0.797363 15.2024V8.78057C1.27012 8.90147 1.76424 8.91277 2.24202 8.81363C2.71981 8.71448 3.16863 8.50751 3.55425 8.20849C3.93987 7.90948 4.25208 7.52633 4.46708 7.08828C4.68207 6.65023 4.79416 6.16885 4.79479 5.68089C4.79436 4.83319 4.45732 4.02035 3.85776 3.42109C3.25819 2.82183 2.44519 2.48519 1.59749 2.48519ZM6.39824 7.20113C6.39824 7.41333 6.48254 7.61685 6.63259 7.7669C6.78264 7.91695 6.98616 8.00125 7.19836 8.00125H13.5994C13.8116 8.00125 14.0151 7.91695 14.1651 7.7669C14.3152 7.61685 14.3995 7.41333 14.3995 7.20113C14.3995 6.98892 14.3152 6.7854 14.1651 6.63535C14.0151 6.4853 13.8116 6.401 13.5994 6.401H7.19836C6.98616 6.401 6.78264 6.4853 6.63259 6.63535C6.48254 6.7854 6.39824 6.98892 6.39824 7.20113ZM6.39824 12.0019C6.39824 12.2141 6.48254 12.4176 6.63259 12.5677C6.78264 12.7177 6.98616 12.802 7.19836 12.802H11.3814C11.5936 12.802 11.7971 12.7177 11.9472 12.5677C12.0972 12.4176 12.1815 12.2141 12.1815 12.0019C12.1815 11.7897 12.0972 11.5862 11.9472 11.4361C11.7971 11.286 11.5936 11.2018 11.3814 11.2018H7.19836C6.98616 11.2018 6.78264 11.286 6.63259 11.4361C6.48254 11.5862 6.39824 11.7897 6.39824 12.0019Z" fill="#00B4D8"/>
</svg>
