<svg width="1440" height="256" viewBox="0 0 1440 256" fill="none" xmlns="http://www.w3.org/2000/svg">
<path d="M1440 96L1420 80C1400 64 1360 32 1320 32C1280 32 1240 64 1200 90.7C1160 117 1120 139 1080 133.3C1040 128 1000 96 960 69.3C920 43 880 21 840 42.7C800 64 760 128 720 165.3C680 203 640 213 600 213.3C560 213 520 203 480 165.3C440 128 400 64 360 32C320 0 280 0 240 32C200 64 160 128 120 128C80 128 40 64 20 32L0 0V256H20C40 256 80 256 120 256C160 256 200 256 240 256C280 256 320 256 360 256C400 256 440 256 480 256C520 256 560 256 600 256C640 256 680 256 720 256C760 256 800 256 840 256C880 256 920 256 960 256C1000 256 1040 256 1080 256C1120 256 1160 256 1200 256C1240 256 1280 256 1320 256C1360 256 1400 256 1420 256H1440V96Z" fill="#00B4D8"/>
</svg>
