<svg width="1440" height="270" viewBox="0 0 1440 270" fill="none" xmlns="http://www.w3.org/2000/svg">
<path d="M1440 101.034L1420 84.1954C1400 67.3563 1360 33.6782 1320 33.6782C1280 33.6782 1240 67.3563 1200 95.4565C1160 123.136 1120 146.29 1080 140.291C1040 134.713 1000 101.034 960 72.9343C920 45.255 880 22.1013 840 44.9393C800 67.3563 760 134.713 720 173.969C680 213.646 640 224.17 600 224.486C560 224.17 520 213.646 480 173.969C440 134.713 400 67.3563 360 33.6782C320 0 280 0 240 33.6782C200 67.3563 160 134.713 120 134.713C80 134.713 40 67.3563 20 33.6782L0 0V269.425H20C40 269.425 80 269.425 120 269.425C160 269.425 200 269.425 240 269.425C280 269.425 320 269.425 360 269.425C400 269.425 440 269.425 480 269.425C520 269.425 560 269.425 600 269.425C640 269.425 680 269.425 720 269.425C760 269.425 800 269.425 840 269.425C880 269.425 920 269.425 960 269.425C1000 269.425 1040 269.425 1080 269.425C1120 269.425 1160 269.425 1200 269.425C1240 269.425 1280 269.425 1320 269.425C1360 269.425 1400 269.425 1420 269.425H1440V101.034Z" fill="#FFEE99"/>
</svg>
